<svg width="176" height="73" viewBox="0 0 176 73" fill="none" xmlns="http://www.w3.org/2000/svg">
<path d="M72 0H0V72H72V0Z" fill="#FFAD00"/>
<path opacity="0.3" d="M71.9996 31.2L67.6996 27C67.6996 27 66.4996 26.7 64.6996 26.4C61.6976 25.8256 58.6547 25.4912 55.5996 25.4C42.4996 25.4 40.9996 28.1 36.3996 28.1C31.7996 28.1 30.2996 25.4 17.1996 25.4C12.5996 25.4 4.59961 26.7 4.59961 27.7V31.4C4.59961 32.1 4.59961 32.2 4.89961 32.2C8.89961 32.2 5.49961 40.4 11.1996 44.5L38.7996 72H71.9996V31.2ZM19.0996 44.4C15.2996 44.4 12.8996 43.1 11.3996 41.3C9.29961 38.3 9.29961 34.3 9.29961 32.6C9.29961 29.8 11.1996 27.6 20.2996 27.6C26.3996 27.6 29.5996 29 30.9996 30.4C31.2215 30.7649 31.3582 31.175 31.3996 31.6C31.3996 33 32.1996 44.4 19.0996 44.4ZM52.8996 44.4C47.8996 44.4 44.9996 42.8 43.1996 40.6C40.7996 37.2 41.0996 33 41.0996 32.2C41.0996 30.4 43.8996 27.6 52.5996 27.6C58.3996 27.6 61.2996 28.5 62.5996 29.9C62.9748 30.5334 63.1491 31.2656 63.0996 32C63.1996 34.8 63.0996 44.4 52.8996 44.4Z" fill="black"/>
<path d="M55.2002 24.9C42.1002 24.9 40.6002 27.6 36.0002 27.6C31.4002 27.6 29.9002 24.9 16.8002 24.9C12.2002 24.9 4.2002 26.2 4.2002 27.2V30.9C4.2002 31.6 4.2002 31.7 4.5002 31.7C9.8002 31.7 2.1002 46.3 20.0002 46.3C34.8002 46.3 31.8002 31.9 36.0002 31.9C40.2002 31.9 37.2002 46.3 52.0002 46.3C70.0002 46.3 62.2002 31.7 67.5002 31.7C67.8002 31.7 67.8002 31.6 67.8002 30.9V27.2C67.8002 26.2 59.8002 24.9 55.2002 24.9ZM19.1002 44.4C8.9002 44.4 8.9002 34.8 8.9002 32C8.9002 29.2 10.8002 27 19.9002 27C28.6002 27 31.4002 29.8 31.4002 31.6C31.4002 33 32.2002 44.4 19.1002 44.4ZM52.9002 44.4C39.8002 44.4 40.7002 33 40.7002 31.6C40.7002 29.8 43.5002 27 52.2002 27C61.3002 27 63.2002 29.2 63.2002 32C63.2002 34.8 63.1002 44.4 52.9002 44.4Z" fill="#332E42"/>
<path d="M48.4 3.29994C47.7275 3.29994 47.0702 3.49935 46.5111 3.87294C45.9519 4.24654 45.5161 4.77755 45.2588 5.39882C45.0015 6.02008 44.9341 6.70371 45.0653 7.36325C45.1965 8.02278 45.5203 8.6286 45.9958 9.1041C46.4713 9.5796 47.0772 9.90342 47.7367 10.0346C48.3962 10.1658 49.0799 10.0985 49.7011 9.84113C50.3224 9.58379 50.8534 9.14801 51.227 8.58888C51.6006 8.02975 51.8 7.3724 51.8 6.69994C51.7748 5.80616 51.4085 4.95592 50.7763 4.32368C50.144 3.69143 49.2938 3.32513 48.4 3.29994ZM57.3 3.29994C56.6275 3.29994 55.9702 3.49935 55.4111 3.87294C54.8519 4.24654 54.4161 4.77755 54.1588 5.39882C53.9015 6.02008 53.8341 6.70371 53.9653 7.36325C54.0965 8.02278 54.4203 8.6286 54.8958 9.1041C55.3713 9.5796 55.9772 9.90342 56.6367 10.0346C57.2962 10.1658 57.9799 10.0985 58.6011 9.84113C59.2224 9.58379 59.7534 9.14801 60.127 8.58888C60.5006 8.02975 60.7 7.3724 60.7 6.69994C60.6748 5.80616 60.3085 4.95592 59.6763 4.32368C59.044 3.69143 58.1938 3.32513 57.3 3.29994ZM66.1 3.29994C65.4275 3.29994 64.7702 3.49935 64.2111 3.87294C63.6519 4.24654 63.2161 4.77755 62.9588 5.39882C62.7015 6.02008 62.6341 6.70371 62.7653 7.36325C62.8965 8.02278 63.2203 8.6286 63.6958 9.1041C64.1713 9.5796 64.7772 9.90342 65.4367 10.0346C66.0962 10.1658 66.7799 10.0985 67.4011 9.84113C68.0224 9.58379 68.5534 9.14801 68.927 8.58888C69.3006 8.02975 69.5 7.3724 69.5 6.69994C69.504 6.25233 69.4188 5.80841 69.2493 5.39409C69.0799 4.97978 68.8296 4.60337 68.5131 4.28685C68.1966 3.97034 67.8202 3.72004 67.4058 3.5506C66.9915 3.38115 66.5476 3.29594 66.1 3.29994Z" fill="white"/>
<path d="M115.7 44.2C108.9 44.2 108.8 47.7 108.8 50.3V65.9C108.8 68.5 108.9 72 115.7 72C122.5 72 122.6 68.5 122.6 65.9V60.9H116.9V67.2C116.894 67.5166 116.766 67.8189 116.542 68.0428C116.319 68.2667 116.016 68.3948 115.7 68.4C115.541 68.4056 115.382 68.3783 115.234 68.32C115.086 68.2617 114.951 68.1735 114.839 68.0609C114.726 67.9484 114.638 67.8138 114.58 67.6657C114.521 67.5176 114.494 67.3591 114.5 67.2V58.5H122.6V50.2C122.5 47.7 122.4 44.2 115.7 44.2ZM116.8 54.9H114.5V49C114.521 48.6887 114.654 48.3955 114.875 48.1749C115.095 47.9542 115.388 47.821 115.7 47.8C116.016 47.8051 116.319 47.9332 116.542 48.1571C116.766 48.3811 116.894 48.6833 116.9 49V54.9H116.8ZM97.9996 40.6C91.2996 40.6 91.0996 44.1 91.0996 46.7V66.5C91.0996 70.7 93.8996 72.4 98.6996 71.9C100.5 71.7 101.6 70.6 101.9 68L102.1 71.7H104.8V55.6H97.8996V59.3H99.0996V67.3C99.0996 67.6182 98.9732 67.9235 98.7481 68.1485C98.5231 68.3736 98.2179 68.5 97.8996 68.5C97.5814 68.5 97.2761 68.3736 97.0511 68.1485C96.826 67.9235 96.6996 67.6182 96.6996 67.3V45.4C96.6996 45.0817 96.826 44.7765 97.0511 44.5514C97.2761 44.3264 97.5814 44.2 97.8996 44.2C98.2179 44.2 98.5231 44.3264 98.7481 44.5514C98.9732 44.7765 99.0996 45.0817 99.0996 45.4V53.2H104.8V46.7C104.8 44.1 104.7 40.6 97.9996 40.6ZM175.3 52.7V50.4C175.3 47.8 175.2 44.3 168.4 44.3C161.6 44.3 161.5 47.8 161.5 50.4V58.7H169.5V67.4C169.5 67.7182 169.373 68.0235 169.148 68.2485C168.923 68.4735 168.618 68.6 168.3 68.6C167.981 68.6 167.676 68.4735 167.451 68.2485C167.226 68.0235 167.1 67.7182 167.1 67.4V61.1H161.4V66.1C161.4 68.7 161.5 72.2 168.3 72.2C175.1 72.2 175.2 68.7 175.2 66.1V55H167.1V49C167.121 48.6887 167.254 48.3955 167.475 48.1749C167.695 47.9542 167.988 47.821 168.3 47.8C168.616 47.8051 168.919 47.9332 169.142 48.1571C169.366 48.3811 169.494 48.6833 169.5 49V52.7H175.3ZM154.7 54.9L157.8 44.6H152.7L149.8 54.2V41H144.1V71.7H149.8V58.6H152.1V71.7H157.8V54.9H154.7ZM133.3 44.2C126.5 44.2 126.4 47.7 126.4 50.3V65.9C126.4 68.5 126.5 72 133.3 72C140.1 72 140.2 68.5 140.2 65.9V60.9H134.5V67.2C134.5 67.5182 134.373 67.8235 134.148 68.0485C133.923 68.2736 133.618 68.4 133.3 68.4C132.981 68.4 132.676 68.2736 132.451 68.0485C132.226 67.8235 132.1 67.5182 132.1 67.2V58.5H140.2V50.2C140.2 47.7 140 44.2 133.3 44.2ZM134.5 54.9H132.1V49C132.121 48.6887 132.254 48.3955 132.475 48.1749C132.695 47.9542 132.988 47.821 133.3 47.8C133.616 47.8051 133.919 47.9332 134.142 48.1571C134.366 48.3811 134.494 48.6833 134.5 49V54.9Z" fill="white"/>
<path d="M124.6 38.1H131.6V10.2H124.6V38.1ZM112.8 38.1H119.8V0.4H112.8V38.1ZM99.5 0C91.3 0 91.1 4.3 91.1 7.5V20.5H100.9V32.7C100.904 32.885 100.871 33.0689 100.802 33.2406C100.733 33.4123 100.63 33.5682 100.499 33.6991C100.368 33.8299 100.212 33.9329 100.041 34.0018C99.8689 34.0707 99.685 34.1041 99.5 34.1C99.3096 34.1067 99.1197 34.0758 98.9412 34.009C98.7627 33.9422 98.5991 33.8409 98.4598 33.7109C98.3205 33.5809 98.2082 33.4247 98.1293 33.2512C98.0504 33.0778 98.0065 32.8905 98 32.7V23.4H91V31C91 34.2 91.2 38.5 99.4 38.5C107.6 38.5 107.8 34.2 107.8 31V16H98.1V5.8C98.1 5.4287 98.2475 5.0726 98.51 4.81005C98.7726 4.5475 99.1287 4.4 99.5 4.4C99.8713 4.4 100.227 4.5475 100.49 4.81005C100.752 5.0726 100.9 5.4287 100.9 5.8V13.2H107.9V7.5C108 4.3 107.8 0 99.5 0ZM146.3 4.8H144.9C136.6 4.8 136.4 9.1 136.4 12.3V31.4C136.4 35.4 137.5 37.2 140.4 38.2C141.436 38.4998 142.534 38.5092 143.574 38.227C144.615 37.9448 145.558 37.382 146.3 36.6V38.1H153.3V0.4H146.3V4.8ZM146.3 32.6C146.304 32.785 146.271 32.9689 146.202 33.1406C146.133 33.3123 146.03 33.4682 145.899 33.5991C145.768 33.7299 145.612 33.8329 145.441 33.9018C145.269 33.9707 145.085 34.0041 144.9 34C144.71 34.0067 144.52 33.9758 144.341 33.909C144.163 33.8422 143.999 33.7409 143.86 33.6109C143.72 33.4809 143.608 33.3247 143.529 33.1512C143.45 32.9778 143.406 32.7905 143.4 32.6V10.9C143.41 10.5054 143.571 10.1297 143.851 9.85055C144.13 9.57141 144.505 9.41012 144.9 9.4H146.3V32.6ZM128.1 0.5C127.309 0.5 126.536 0.734596 125.878 1.17412C125.22 1.61365 124.707 2.23836 124.404 2.96927C124.102 3.70017 124.023 4.50444 124.177 5.28036C124.331 6.05629 124.712 6.76902 125.272 7.32843C125.831 7.88784 126.544 8.2688 127.32 8.42314C128.096 8.57748 128.9 8.49827 129.631 8.19552C130.362 7.89277 130.986 7.38008 131.426 6.72228C131.865 6.06448 132.1 5.29113 132.1 4.5C132.1 3.43913 131.679 2.42172 130.928 1.67157C130.178 0.921427 129.161 0.5 128.1 0.5ZM175 22.1V11.9C175 8.7 174.8 4.4 166.6 4.4C158.4 4.4 158.1 8.7 158.1 11.9V31C158.1 34.2 158.3 38.5 166.6 38.5C174.9 38.5 175 34.2 175 31V24.9H168V32.6C168.004 32.785 167.971 32.9689 167.902 33.1406C167.833 33.3123 167.73 33.4682 167.599 33.5991C167.468 33.7299 167.312 33.8329 167.141 33.9018C166.969 33.9707 166.785 34.0041 166.6 34C166.41 34.0067 166.22 33.9758 166.041 33.909C165.863 33.8422 165.699 33.7409 165.56 33.6109C165.42 33.4809 165.308 33.3247 165.229 33.1512C165.15 32.9778 165.106 32.7905 165.1 32.6V22.1H175ZM165.1 10.2C165.106 10.0095 165.15 9.82224 165.229 9.64877C165.308 9.47531 165.42 9.3191 165.56 9.18908C165.699 9.05905 165.863 8.95777 166.041 8.89101C166.22 8.82424 166.41 8.79332 166.6 8.8C166.785 8.7959 166.969 8.82932 167.141 8.89822C167.312 8.96713 167.468 9.0701 167.599 9.20093C167.73 9.33175 167.833 9.48773 167.902 9.65943C167.971 9.83114 168.004 10.015 168 10.2V17.4H165.1V10.2Z" fill="white"/>
</svg>
